<svg width="59" height="59" viewBox="0 0 59 59" fill="none" xmlns="http://www.w3.org/2000/svg">
<rect width="59" height="59" rx="29.5" fill="white"/>
<rect x="0.383117" y="0.383117" width="58.2338" height="58.2338" rx="29.1169" stroke="black" stroke-opacity="0.32" stroke-width="0.766234"/>
<path d="M36.1873 36.1872C35.9369 36.4376 35.6422 36.5625 35.3034 36.562C34.9646 36.5625 34.67 36.4376 34.4195 36.1872L30.0001 31.7678L25.5807 36.1872C25.3302 36.4376 25.0353 36.5628 24.6959 36.5628C24.3577 36.5628 24.0634 36.4376 23.8129 36.1872C23.5625 35.9368 23.437 35.6421 23.4364 35.3033C23.437 34.9645 23.5625 34.6699 23.8129 34.4194L28.2323 30L23.8129 25.5806C23.5625 25.3301 23.4373 25.0352 23.4373 24.6958C23.4373 24.3576 23.5625 24.0632 23.8129 23.8128C24.0634 23.5624 24.358 23.4369 24.6968 23.4363C25.0356 23.4369 25.3302 23.5624 25.5807 23.8128L30.0001 28.2322L34.4195 23.8128C34.67 23.5624 34.9643 23.4372 35.3025 23.4372C35.6419 23.4372 35.9369 23.5624 36.1873 23.8128C36.4377 24.0632 36.5626 24.3579 36.5621 24.6967C36.5626 25.0355 36.4377 25.3301 36.1873 25.5806L31.7679 30L36.1873 34.4194C36.4377 34.6699 36.5629 34.9642 36.5629 35.3024C36.5629 35.6418 36.4377 35.9368 36.1873 36.1872Z" fill="#787878"/>
</svg>
