<svg width="24" height="24" viewBox="0 0 24 24" fill="none" xmlns="http://www.w3.org/2000/svg">
<path d="M19.05 23.7L16.125 20.8L13.925 23L13.225 22.3C12.8417 21.9167 12.65 21.4417 12.65 20.875C12.65 20.3083 12.8417 19.8333 13.225 19.45L17.45 15.225C17.8333 14.8417 18.3083 14.65 18.875 14.65C19.4417 14.65 19.9167 14.8417 20.3 15.225L21 15.925L18.8 18.125L21.7 21.05C21.9 21.25 22 21.4833 22 21.75C22 22.0167 21.9 22.25 21.7 22.45L20.45 23.7C20.25 23.9 20.0167 24 19.75 24C19.4833 24 19.25 23.9 19.05 23.7ZM22 8L10.65 19.35L10.775 19.45C11.1583 19.8333 11.35 20.3083 11.35 20.875C11.35 21.4417 11.1583 21.9167 10.775 22.3L10.075 23L7.875 20.8L4.95 23.7C4.75 23.9 4.51667 24 4.25 24C3.98333 24 3.75 23.9 3.55 23.7L2.3 22.45C2.1 22.25 2 22.0167 2 21.75C2 21.4833 2.1 21.25 2.3 21.05L5.2 18.125L3 15.925L3.7 15.225C4.08333 14.8417 4.55833 14.65 5.125 14.65C5.69167 14.65 6.16667 14.8417 6.55 15.225L6.65 15.35L18 4H22V8ZM6.95 12.95L2 8V4H6L10.95 8.95L9.525 10.35L5.175 6H4V7.175L8.35 11.525L6.95 12.95ZM9.25 17.925L20 7.175V6H18.825L8.075 16.75L9.25 17.925Z" fill="#5A5959"/>
</svg>
