<svg width="40" height="40" viewBox="0 0 40 40" fill="none" xmlns="http://www.w3.org/2000/svg">
<g clip-path="url(#clip0_633_8536)">
<path d="M8.777 16.2742C10.3313 11.5644 14.7574 8.18182 20 8.18182C22.8182 8.18182 25.3636 9.18182 27.3636 10.8182L33.1818 5C29.6364 1.90909 25.0909 0 20 0C12.1168 0 5.32958 4.49716 2.06665 11.0834L8.777 16.2742Z" fill="#EA4335"/>
<path d="M26.7346 30.021C24.9183 31.1938 22.6102 31.8182 20.0001 31.8182C14.7775 31.8182 10.3653 28.4614 8.79503 23.7798L2.0625 28.8916C5.32138 35.4894 12.1084 40 20.0001 40C24.8881 40 29.559 38.2623 33.057 34.9993L26.7346 30.021Z" fill="#34A853"/>
<path d="M33.057 34.9993C36.7153 31.5868 39.0909 26.5061 39.0909 20C39.0909 18.8182 38.9091 17.5455 38.6364 16.3636H20V24.0909H30.7273C30.198 26.6894 28.7772 28.702 26.7345 30.021L33.057 34.9993Z" fill="#4A90E2"/>
<path d="M8.79497 23.7798C8.39721 22.5939 8.18182 21.3229 8.18182 20C8.18182 18.6971 8.39073 17.4447 8.777 16.2742L2.06665 11.0834C0.727645 13.7674 0 16.7923 0 20C0 23.1992 0.741301 26.217 2.06244 28.8916L8.79497 23.7798Z" fill="#FBBC05"/>
</g>
<defs>
<clipPath id="clip0_633_8536">
<rect width="40" height="40" fill="white"/>
</clipPath>
</defs>
</svg>
